<?xml version="1.0" encoding="UTF-8"?>
<svg id="Layer_1" data-name="Layer 1" xmlns="http://www.w3.org/2000/svg" viewBox="0 0 1000 1000">
  <defs>
    <style>
      .cls-1 {
        fill: #000dff;
      }
    </style>
  </defs>
  <path class="cls-1" d="M858.7,464.79h-118.55c-.33-4.62,3.73-7.86,6.16-11.45,12.87-19.02,63.35-77.05,66.05-93.58,6.49-39.8-40.51-61.51-66.36-31.15l-103.27,136.18h-104.47v-106.81l136.18-103.27c30.36-25.84,8.64-72.85-31.15-66.36-16.53,2.7-74.56,53.17-93.58,66.05-2.12,1.44-9.73,8.12-11.45,6.16v-118.55c0-15.45-23.92-29.89-38.73-29.53-13.9.33-36.39,15.22-36.39,29.53v118.55c-4.62.33-7.86-3.73-11.45-6.16-19.02-12.87-77.05-63.35-93.58-66.05-39.8-6.49-61.51,40.51-31.15,66.36l136.18,103.27v106.3h-105.86l-103.27-136.18c-25.84-30.36-72.85-8.64-66.36,31.15,2.7,16.53,53.17,74.56,66.05,93.58,1.44,2.12,8.12,9.73,6.16,11.45h-118.55c-15.45,0-29.89,23.92-29.53,38.73.33,13.9,15.22,36.39,29.53,36.39h118.55c.33,4.62-3.73,7.86-6.16,11.45-12.87,19.02-63.35,77.05-66.05,93.58-6.49,39.8,40.51,61.51,66.36,31.15l103.27-136.18h105.86v102.63l-136.18,103.27c-30.36,25.84-8.64,72.85,31.15,66.36,16.53-2.7,74.56-53.17,93.58-66.05,2.12-1.44,9.73-8.12,11.45-6.16v118.55c0,15.45,23.92,29.89,38.73,29.53,13.9-.33,36.39-15.22,36.39-29.53v-118.55c4.62-.33,7.86,3.73,11.45,6.16,19.02,12.87,77.05,63.35,93.58,66.05,39.8,6.49,61.51-40.51,31.15-66.36l-136.18-103.27v-102.12h104.47l103.27,136.18c25.84,30.36,72.85,8.64,66.36-31.15-2.7-16.53-53.17-74.56-66.05-93.58-1.44-2.12-8.12-9.73-6.16-11.45h118.55c15.45,0,29.89-23.92,29.53-38.73-.33-13.9-15.22-36.39-29.53-36.39Z"/>
</svg>