<?xml version="1.0" encoding="UTF-8"?>
<svg id="Layer_1" data-name="Layer 1" xmlns="http://www.w3.org/2000/svg" viewBox="0 0 421 861.57">
  <defs>
    <style>
      .cls-1 {
        fill: #f15a24;
      }
    </style>
  </defs>
  <path class="cls-1" d="M406.32,522.41c-13.34-77.56-37.17-170.72-36.94-191.63.38-34.8-38.91-127.97-48.88-151.73-12.39-29.52-37.66,55.95-58.95,160.26-2.3-36.55-6.92-67.48-15.44-80.91-28-44.14-25.01-285.85-45.8-255.81-16.88,24.38-55.66,125-45.57,210.04,4.4,37.13-2.73,97.37-14.44,155.37-18.14-98.9-37.82-197.83-47.55-219.42C74.4,107.89,6,470.87,3.49,568.42c-2.29,14.64-3.49,29.73-3.49,45.16,0,136.97,94.24,248,210.5,248s210.5-111.03,210.5-248c0-32.19-5.21-62.94-14.68-91.16Z"/>
</svg>