<?xml version="1.0" encoding="UTF-8"?>
<svg id="GravityWell" xmlns="http://www.w3.org/2000/svg" viewBox="0 0 64 64">
  <defs>
    <style>
      .cls-1 {
        fill: #3f55ff;
        stroke-width: 0px;
      }
    </style>
  </defs>
  <circle class="cls-1" cx="31.84" cy="32.11" r="15.54"/>
  <polygon class="cls-1" points="35.12 11.43 33.7 11.43 33.7 2.37 29.98 2.37 29.98 11.43 28.56 11.43 31.84 14.75 35.12 11.43"/>
  <polygon class="cls-1" points="28.56 52.57 29.98 52.57 29.98 61.63 33.7 61.63 33.7 52.57 35.12 52.57 31.84 49.25 28.56 52.57"/>
  <polygon class="cls-1" points="11.71 35.39 15.03 32.11 11.71 28.84 11.71 30.25 2.65 30.25 2.65 33.98 11.71 33.98 11.71 35.39"/>
  <polygon class="cls-1" points="52.29 30.25 52.29 28.84 48.97 32.11 52.29 35.39 52.29 33.98 61.35 33.98 61.35 30.25 52.29 30.25"/>
  <polygon class="cls-1" points="14.87 20 19.53 20.03 19.5 15.36 18.5 16.36 12.1 9.96 9.46 12.6 15.86 19 14.87 20"/>
  <polygon class="cls-1" points="48.59 44.46 43.93 44.43 43.96 49.09 44.96 48.09 51.36 54.49 54 51.86 47.59 45.45 48.59 44.46"/>
  <polygon class="cls-1" points="16.26 45.22 9.85 51.63 12.49 54.26 18.89 47.86 19.89 48.86 19.92 44.2 15.26 44.23 16.26 45.22"/>
  <polygon class="cls-1" points="47.59 19.16 53.99 12.76 51.35 10.13 44.95 16.53 43.95 15.53 43.92 20.19 48.59 20.16 47.59 19.16"/>
</svg>