<?xml version="1.0" encoding="UTF-8"?>
<svg id="GravityGrid" xmlns="http://www.w3.org/2000/svg" viewBox="0 0 64 64">
  <defs>
    <style>
      .cls-1 {
        fill: #3f55ff;
        stroke-width: 0px;
      }
    </style>
  </defs>
  <polygon class="cls-1" points="15.62 31.83 14.06 31.83 14.06 14.72 9.94 14.72 9.94 31.83 8.38 31.83 12 38.1 15.62 31.83"/>
  <polygon class="cls-1" points="25.62 31.83 24.06 31.83 24.06 14.72 19.94 14.72 19.94 31.83 18.38 31.83 22 38.1 25.62 31.83"/>
  <polygon class="cls-1" points="35.62 31.83 34.06 31.83 34.06 14.72 29.94 14.72 29.94 31.83 28.38 31.83 32 38.1 35.62 31.83"/>
  <polygon class="cls-1" points="45.62 31.83 44.06 31.83 44.06 14.72 39.94 14.72 39.94 31.83 38.38 31.83 42 38.1 45.62 31.83"/>
  <polygon class="cls-1" points="55.62 31.83 54.06 31.83 54.06 14.72 49.94 14.72 49.94 31.83 48.38 31.83 52 38.1 55.62 31.83"/>
  <rect class="cls-1" x="5.73" y="40.22" width="52.53" height="9.07"/>
</svg>