<?xml version="1.0" encoding="UTF-8"?>
<svg id="Layer_1" data-name="Layer 1" xmlns="http://www.w3.org/2000/svg" viewBox="0 0 108.21 84.37">
  <defs>
    <style>
      .cls-1 {
        fill: none;
      }

      .cls-1, .cls-2 {
        stroke-width: 0px;
      }

      .cls-2 {
        fill: #3f55ff;
      }
    </style>
  </defs>
  <path class="cls-1" d="M65.31,41.47h42.9v42.9h-42.9v-42.9Z"/>
  <path class="cls-2" d="M60,31.67h-6.33c-1.66,0-3,1.34-3,3s1.33,2.98,2.97,3c-1.34,9.92-9.21,17.79-19.13,19.13V24.62c5.45-1.35,9.5-6.26,9.5-12.12,0-6.89-5.61-12.5-12.5-12.5s-12.5,5.61-12.5,12.5c0,5.86,4.05,10.77,9.5,12.12v32.18c-9.92-1.34-17.79-9.21-19.13-19.13,1.64-.02,2.97-1.35,2.97-3s-1.34-3-3-3H3c-1.66,0-3,1.34-3,3s1.34,3,3,3h.32c1.5,14.22,13.56,25.33,28.18,25.33s26.67-11.11,28.18-25.33h.32c1.66,0,3-1.34,3-3s-1.34-3-3-3ZM25,12.5c0-3.58,2.92-6.5,6.5-6.5s6.5,2.92,6.5,6.5-2.92,6.5-6.5,6.5-6.5-2.92-6.5-6.5Z"/>
</svg>