<?xml version="1.0" encoding="UTF-8"?>
<svg id="Layer_1" data-name="Layer 1" xmlns="http://www.w3.org/2000/svg" viewBox="0 0 500 500">
  <defs>
    <style>
      .cls-1 {
        fill: #00ffec;
        stroke-width: 0px;
      }
    </style>
  </defs>
  <path class="cls-1" d="M416.51,219.51c6.93-5.56,5.65-16.46-2.4-20.22-21.94-10.26-47.26-24.49-73.32-44.27-37-28.08-63.44-58.19-81.62-82.91-4.87-6.63-14.85-6.46-19.51.32-14.47,21.04-35.09,46.26-63.67,70.59-32.17,27.39-64.16,44.9-89.78,56.11-8.47,3.71-9.82,15.18-2.37,20.66,25.14,18.48,54.46,44.02,82.54,78.43,37.05,45.39,59.35,90.79,72.93,126.76,3.84,10.16,18.11,10.42,22.29.39,14.83-35.51,37.4-78.58,71.97-122.36,28.19-35.7,57.42-63.06,82.92-83.51Z"/>
</svg>