<?xml version="1.0" encoding="UTF-8"?>
<svg id="Layer_1" data-name="Layer 1" xmlns="http://www.w3.org/2000/svg" viewBox="0 0 879.13 365.51">
  <defs>
    <style>
      .cls-1 {
        fill: #00ffec;
      }

      .cls-1, .cls-2 {
        stroke-width: 0px;
      }

      .cls-2 {
        fill: #ff0707;
      }
    </style>
  </defs>
  <path class="cls-1" d="M337.53,152.27c6.93-5.56,5.65-16.46-2.4-20.22-21.94-10.26-47.26-24.49-73.32-44.27-37-28.08-63.44-58.19-81.62-82.91-4.87-6.63-14.85-6.46-19.51.32-14.47,21.04-35.09,46.26-63.67,70.59-32.17,27.39-64.16,44.9-89.78,56.11-8.47,3.71-9.82,15.18-2.37,20.66,25.14,18.48,54.46,44.02,82.54,78.43,37.05,45.39,59.35,90.79,72.93,126.76,3.84,10.16,18.11,10.42,22.29.39,14.83-35.51,37.4-78.58,71.97-122.36,28.19-35.7,57.42-63.06,82.92-83.51Z"/>
  <path id="path4" class="cls-2" d="M667.64,62.39c-16.98-23.78-38.14-45.91-61.92-47.23-56.34-3.14-103.23,19.08-102.81,75.5.75,100.94,54.72,144.26,173.15,254.11,8.43,7.82,21.48,7.82,29.91,0,118.44-109.85,172.4-153.17,173.15-254.11.42-56.42-46.47-78.64-102.81-75.5-23.78,1.32-44.94,23.45-61.92,47.23-11.49,16.08-35.27,16.08-46.76,0Z"/>
</svg>