<?xml version="1.0" encoding="UTF-8"?>
<svg id="Layer_2" data-name="Layer 2" xmlns="http://www.w3.org/2000/svg" viewBox="0 0 2120.93 2125.58">
  <defs>
    <style>
      .cls-1 {
        fill: #fff;
        stroke-width: 0px;
      }
    </style>
  </defs>
  <g id="Vector">
    <path class="cls-1" d="M467.75,337.35c43.26-26.35,68.04-39.53,74.34-39.53s16.23,8.07,29.79,24.19c13.57,16.13,20.35,30.68,20.35,43.66v183.49c0,2.76-15.64,10.43-46.91,23.01-31.27,12.59-57.14,22.03-77.58,28.32v59.59c0,14.56,1.57,24.98,4.72,31.27,3.14,6.3,9.63,9.44,19.47,9.44v18.29l-120.95,50.74-9.44-18.88c8.65,0,16.91-5.11,24.78-15.34,7.08-9.83,10.62-24.78,10.62-44.84v-305.62c0-23.99-8.07-37.56-24.19-40.71v-12.98l59.59-33.63c7.86,3.15,15.73,8.85,23.6,17.11,7.86,8.26,11.8,15.74,11.8,22.42ZM490.76,354.46c-7.08,0-14.75,2.95-23.01,8.85v209.45c10.22,0,21.63-3.24,34.22-9.73,12.58-6.49,18.88-13.27,18.88-20.35v-144.55c0-29.1-10.03-43.66-30.09-43.66Z"/>
    <path class="cls-1" d="M715.54,454.76v208.86c0,24,8.06,37.57,24.19,40.71v12.98l-59.59,33.63c-8.66-3.54-16.72-9.34-24.19-17.4-7.48-8.06-11.21-15.64-11.21-22.72v-208.86c0-23.99-8.07-37.56-24.19-40.71v-12.98l59.59-33.63c8.65,3.54,16.71,9.35,24.19,17.4,7.47,8.07,11.21,15.64,11.21,22.71ZM635.89,340.89v-35.99c0-1.18,8.16-4.81,24.48-10.92,16.32-6.09,25.76-9.15,28.32-9.15s6.29,3.35,11.21,10.03c4.91,6.69,7.38,13.57,7.38,20.65v43.07c0,1.18-7.87,4.82-23.6,10.92-15.74,6.1-25.37,9.15-28.91,9.15s-7.58-3.44-12.09-10.33c-4.53-6.88-6.79-16.02-6.79-27.43Z"/>
    <path class="cls-1" d="M747.39,450.04l64.9-35.4c2.75.79,5.99,1.87,9.73,3.24,3.73,1.38,8.85,5.22,15.34,11.51,6.49,6.3,9.73,13.38,9.73,21.24,1.96-.78,11.3-6.98,28.03-18.58,16.71-11.6,27.43-17.4,32.15-17.4,12.58,0,24.38,8.26,35.4,24.78,11.01,16.52,16.52,31.67,16.52,45.43v28.91l-60.77,34.22-10.03-8.26c0-33.04-3.15-51.92-9.44-56.64-7.08-5.11-17.7-7.67-31.86-7.67v188.21c0,24,8.06,37.57,24.19,40.71v12.98l-59.59,33.63c-8.66-3.54-16.72-9.34-24.19-17.4-7.48-8.06-11.21-15.64-11.21-22.72v-195.88c0-17.3-3.05-30.28-9.15-38.94-6.1-8.65-12.69-12.98-19.77-12.98v-12.98Z"/>
    <path class="cls-1" d="M1153.31,492.52v166.97c0,14.56,2.36,24.69,7.08,30.39,4.72,5.71,11.99,9.73,21.83,12.09v12.98l-64.31,35.99c-8.66-3.54-16.72-9.34-24.19-17.4-7.47-8.06-11.21-15.43-11.21-22.12l-73.75,39.53c-1.18-.78-2.95-1.86-5.31-3.25-2.36-1.37-6.4-4.32-12.09-8.85-5.71-4.52-10.72-9.34-15.04-14.45-11.8-12.98-17.7-27.73-17.7-44.25v-96.76c0-6.29,10.22-14.35,30.68-24.19,20.45-9.83,40.9-17.89,61.36-24.19l31.27-10.03c0-22.42-5.9-38.05-17.7-46.9-11.8-8.85-34.62-13.27-68.44-13.27v-17.7c60.96-21.63,95.18-32.45,102.66-32.45,12.98,0,25.37,8.46,37.17,25.37,11.8,16.92,17.7,34.42,17.7,52.51ZM1038.55,683.97c6.09,6.49,12.88,9.73,20.36,9.73s15.34-2.95,23.6-8.85v-133.34c-9.84,3.54-17.21,6.49-22.13,8.85-4.92,2.36-10.13,6.1-15.63,11.21-10.23,9.44-15.34,25.77-15.34,48.97v38.35c0,10.23,3.04,18.58,9.14,25.08Z"/>
    <path class="cls-1" d="M1282.51,353.28v70.21h30.09l-5.9,28.91h-24.19v211.22c0,24,8.06,37.57,24.19,40.71v12.98l-59.59,33.63c-8.66-3.54-16.72-9.34-24.19-17.4-7.48-8.06-11.21-15.64-11.21-22.72v-257.83h-24.19l5.9-24.78c11.8,0,26.05-7.96,42.78-23.9,16.71-15.93,26.64-32.94,29.79-51.04h16.52Z"/>
    <path class="cls-1" d="M1483.1,414.64c1.96,0,6.88,3.05,14.75,9.15,7.86,6.1,15.73,14.56,23.6,25.37,7.86,10.82,11.8,21.34,11.8,31.56v99.12c0,7.08-10.43,15.74-31.27,25.96-20.85,10.23-41,18.58-60.47,25.08-19.47,6.49-30,9.73-31.57,9.73,0,30.29,13.17,48.97,39.53,56.05,12.98,3.15,28.51,4.72,46.61,4.72v17.11c-64.51,21.64-98.93,32.45-103.25,32.45-11.8,0-23.8-8.35-35.99-25.08-12.2-16.71-18.29-36.28-18.29-58.7v-198.24c0-2.75,22.42-12.48,67.26-29.21,44.84-16.71,70.6-25.07,77.29-25.07ZM1454.78,480.42c-5.12-7.67-11.61-11.5-19.47-11.5s-16.52,2.95-25.96,8.85v136.29c35.4-9.83,53.1-31.07,53.1-63.72v-41.89c0-11.01-2.56-20.35-7.67-28.02Z"/>
    <path class="cls-1" d="M1601.69,621.73c-9.84,0-18.29-7.47-25.37-22.42-7.08-14.94-10.62-33.23-10.62-54.87v-63.72c0-7.47,20.65-20.35,61.95-38.65,41.3-18.29,65.09-27.43,71.39-27.43,3.54,0,6.68,2.06,9.44,6.19,2.75,4.13,4.91,7.48,6.49,10.03,1.57,2.56,4.03,6.89,7.38,12.98,3.34,6.1,6.2,11.12,8.55,15.05,5.11,9.44,11.6,14.16,19.47,14.16v11.8c-6.3,2.76-14.56,6.89-24.78,12.39-25.18,13.77-38.75,20.65-40.71,20.65-5.9,0-12.3-9.63-19.17-28.91-6.89-19.27-13.08-28.91-18.58-28.91-7.08,0-10.62,5.9-10.62,17.7v72.57c0,15.74,3.54,23.6,10.62,23.6,1.57,0,13.76-5.11,36.58-15.34,22.81-10.22,36.58-15.34,41.3-15.34,9.44,0,17.79,7.58,25.08,22.72,7.27,15.15,10.92,34.51,10.92,58.11v66.67c0,7.48-22.52,20.35-67.56,38.65-45.04,18.29-70.9,27.44-77.58,27.44-2.76,0-5.41-2.46-7.96-7.38-2.56-4.91-6.1-12.48-10.62-22.71-4.53-10.22-8.95-18.88-13.27-25.96-5.12-9.44-11.61-14.16-19.47-14.16v-11.8c6.29-2.75,14.75-6.88,25.37-12.39,24.78-13.76,38.15-20.65,40.12-20.65,5.9,0,13.28,11.61,22.12,34.81,8.85,23.21,16.02,34.81,21.54,34.81,3.93,0,7.67-1.57,11.21-4.72,3.54-3.14,5.31-7.47,5.31-12.98v-73.75c0-17.7-4.92-26.55-14.75-26.55-3.15,0-15.54,4.72-37.17,14.16-21.64,9.44-33.83,14.16-36.58,14.16Z"/>
    <path class="cls-1" d="M883.68,1174.8v-195.88c0-2.75,22.42-12.48,67.26-29.21,44.84-16.71,70.6-25.07,77.29-25.07s16.82,8.07,30.38,24.19c13.57,16.13,20.36,30.68,20.36,43.66v213.58c0,3.15-21.54,13.08-64.61,29.79-43.07,16.72-69.43,25.08-79.06,25.08s-20.65-8.45-33.04-25.37c-12.39-16.91-18.58-37.17-18.58-60.77ZM984.57,1206.66c7.47,0,15.14-3.14,23.01-9.44v-174.05c0-29.1-10.03-43.66-30.09-43.66-7.87,0-15.54,2.95-23.01,8.85v174.64c0,29.11,10.03,43.66,30.09,43.66Z"/>
    <path class="cls-1" d="M1137.97,873.31c0-7.47,20.06-20.35,60.18-38.65s64.5-27.44,73.16-27.44c3.14,0,5.7,1.48,7.67,4.42,1.96,2.95,3.54,5.6,4.72,7.97l5.31,11.21c2.75,5.12,5.5,10.03,8.26,14.75,5.11,9.44,11.6,14.16,19.47,14.16v11.8c-6.3,2.76-14.75,7.08-25.37,12.98-24.78,13.38-38.16,20.06-40.12,20.06-5.9,0-11.31-8.65-16.23-25.96-4.92-17.3-10.13-25.96-15.63-25.96-7.08,0-10.62,5.9-10.62,17.7v86.73h60.18v14.16l-29.5,14.75h-30.68v187.62c0,24,8.06,37.57,24.19,40.71v12.98l-59.59,33.63c-8.66-3.54-16.72-9.34-24.19-17.41-7.48-8.06-11.21-15.63-11.21-22.71v-234.82h-35.99v-12.98l35.99-15.93v-83.78Z"/>
    <path class="cls-1" d="M791.35,1373.87c-3.94,0-7.48,1.97-10.62,5.9v160.48h77.29v14.16l-29.5,14.75h-47.79v110.92c0,14.56,1.57,24.98,4.72,31.27,3.14,6.3,9.63,9.44,19.47,9.44v18.29l-120.95,50.74-9.44-18.88c8.65,0,16.91-5.11,24.78-15.34,7.08-9.83,10.62-24.78,10.62-44.84v-339.84c0-2.75,22.51-12.48,67.56-29.21,45.03-16.71,70.89-25.08,77.58-25.08,2.36,0,5.11,5.71,8.26,17.11,3.14,11.41,6.79,25.18,10.92,41.3,4.13,16.13,8.45,28.02,12.98,35.69,4.52,7.67,13.07,11.5,25.67,11.5v11.8c-8.66,3.94-23.31,10.92-43.96,20.94-20.65,10.03-31.77,15.04-33.33,15.04-5.9,0-13.38-16.02-22.42-48.08-9.05-32.05-16.33-48.08-21.83-48.08Z"/>
    <path class="cls-1" d="M1012.6,1474.76v208.86c0,24,8.06,37.57,24.19,40.71v12.98l-59.59,33.63c-8.66-3.54-16.72-9.34-24.19-17.41-7.48-8.06-11.21-15.63-11.21-22.71v-208.86c0-23.99-8.07-37.56-24.19-40.71v-12.98l59.59-33.63c8.65,3.54,16.71,9.35,24.19,17.41,7.47,8.07,11.21,15.63,11.21,22.71ZM932.95,1360.89v-35.99c0-1.18,8.16-4.81,24.48-10.92,16.32-6.09,25.76-9.14,28.32-9.14s6.29,3.35,11.21,10.03c4.91,6.69,7.38,13.57,7.38,20.65v43.07c0,1.18-7.87,4.82-23.6,10.92-15.74,6.1-25.37,9.14-28.91,9.14s-7.58-3.44-12.09-10.33c-4.53-6.88-6.79-16.02-6.79-27.43Z"/>
    <path class="cls-1" d="M1082.21,1383.31c0-7.47,20.06-20.36,60.18-38.65s64.5-27.43,73.16-27.43c3.14,0,5.7,1.47,7.67,4.42,1.96,2.95,3.54,5.61,4.72,7.96l5.31,11.21c2.75,5.12,5.5,10.03,8.26,14.75,5.11,9.44,11.6,14.16,19.47,14.16v11.8c-6.3,2.76-14.75,7.08-25.37,12.98-24.78,13.38-38.16,20.06-40.12,20.06-5.9,0-11.31-8.65-16.23-25.96-4.92-17.3-10.13-25.96-15.63-25.96-7.08,0-10.62,5.9-10.62,17.7v86.73h60.18v14.16l-29.5,14.75h-30.68v187.62c0,24,8.06,37.57,24.19,40.71v12.98l-59.59,33.63c-8.66-3.54-16.72-9.34-24.19-17.41-7.48-8.06-11.21-15.63-11.21-22.71v-234.82h-35.99v-12.98l35.99-15.93v-83.78Z"/>
    <path class="cls-1" d="M1394.32,1434.64c1.96,0,6.88,3.05,14.75,9.14,7.86,6.1,15.73,14.56,23.6,25.37,7.86,10.82,11.8,21.34,11.8,31.57v99.12c0,7.08-10.43,15.74-31.27,25.96-20.85,10.23-41,18.58-60.47,25.07-19.47,6.49-30,9.74-31.57,9.74,0,30.29,13.17,48.97,39.53,56.05,12.98,3.15,28.51,4.72,46.61,4.72v17.11c-64.51,21.64-98.93,32.45-103.25,32.45-11.8,0-23.8-8.35-35.99-25.08-12.2-16.71-18.29-36.29-18.29-58.71v-198.24c0-2.75,22.42-12.48,67.26-29.21,44.84-16.71,70.6-25.08,77.29-25.08ZM1366,1500.42c-5.12-7.67-11.61-11.5-19.47-11.5s-16.52,2.95-25.96,8.85v136.29c35.4-9.83,53.1-31.07,53.1-63.72v-41.89c0-11.01-2.56-20.35-7.67-28.02Z"/>
  </g>
</svg>