<?xml version="1.0" encoding="UTF-8"?>
<svg id="Layer_1" data-name="Layer 1" xmlns="http://www.w3.org/2000/svg" viewBox="0 0 500 500">
  <defs>
    <style>
      .cls-1 {
        fill: #b60000;
      }

      .cls-2 {
        fill: #b3b3b3;
        stroke: #000;
        stroke-miterlimit: 10;
        stroke-width: 2px;
      }
    </style>
  </defs>
  <path class="cls-1" d="M83.4,460.09c-4.52,0-9.03-1.29-12.92-3.82-6.97-4.55-11.06-12.54-10.68-20.85L77.87,62.36c.38-8.27,5.2-15.85,12.56-19.74,7.38-3.9,16.36-3.56,23.44.81l326.82,202.78c7.27,4.51,11.54,12.61,11.13,21.16-.4,8.58-5.43,16.27-13.14,20.06L93.83,457.66c-3.27,1.62-6.85,2.43-10.42,2.43ZM74.64,418.75s-.03.01-.04.02l.04-.02ZM119.57,98.02l-14.82,305.87,282.8-139.6L119.57,98.02ZM121.2,64.4v.1-.1Z"/>
  <path class="cls-2" d="M48.86,190.49c-1-5.31-.94-10.22.18-14.73,1.11-4.51,2.99-8.4,5.62-11.64,2.63-3.24,5.99-5.79,10.05-7.66,4.07-1.86,8.46-2.8,13.18-2.8h172.38c5.3,0,10.4.98,15.29,2.95,4.88,1.97,9.25,4.57,13.1,7.81,3.85,3.24,7.12,7.07,9.82,11.49,2.69,4.42,4.48,8.99,5.37,13.7l11.39,60.7c1,5.3.93,10.21-.18,14.72-1.11,4.52-2.99,8.4-5.62,11.64-2.63,3.24-5.99,5.8-10.05,7.66-4.07,1.87-8.47,2.8-13.18,2.8h-20.03l70.53,72.78h-61.29l-72.29-72.78h-50.68l-9.29-49.51h118.74l-6.46-34.47H102.21l29.41,156.76h-50.97l-31.79-169.42Z"/>
</svg>