<?xml version="1.0" encoding="UTF-8"?>
<svg id="Layer_1" data-name="Layer 1" xmlns="http://www.w3.org/2000/svg" viewBox="0 0 362.19 237.5">
  <defs>
    <style>
      .cls-1 {
        fill: #fff;
      }

      .cls-2 {
        fill: #3fa9f5;
      }
    </style>
  </defs>
  <g>
    <path class="cls-2" d="M206,237c-6.15,0-12.37-.28-18.48-.83-1.39-.12-2.61-.94-3.27-2.18-.66-1.26-.65-2.75.05-3.99,16.67-29.78,25.85-69.29,25.85-111.25s-9.18-81.47-25.85-111.25c-.69-1.24-.71-2.73-.05-3.99.65-1.24,1.88-2.06,3.27-2.18,6.11-.55,12.33-.83,18.48-.83,85.85,0,155.69,53.05,155.69,118.25s-69.84,118.25-155.69,118.25Z"/>
    <path class="cls-1" d="M206,1c41.5,0,80.51,12.28,109.84,34.58,29.25,22.24,45.35,51.77,45.35,83.17s-16.11,60.94-45.35,83.17c-29.33,22.3-68.33,34.58-109.84,34.58-6.13,0-12.33-.28-18.43-.83-1.24-.11-2.28-.81-2.87-1.92-.58-1.11-.57-2.42.04-3.51,16.71-29.86,25.91-69.45,25.91-111.49s-9.2-81.64-25.91-111.49c-.61-1.09-.63-2.4-.04-3.51.58-1.11,1.63-1.81,2.87-1.92,6.1-.55,12.3-.83,18.43-.83M206,0c-6.27,0-12.45.29-18.52.83-3.35.3-5.25,3.98-3.61,6.91,15.94,28.47,25.79,67.69,25.79,111s-9.85,82.53-25.79,111c-1.64,2.93.26,6.61,3.61,6.91,6.07.55,12.25.83,18.52.83,86.26,0,156.19-53.17,156.19-118.75S292.26,0,206,0h0Z"/>
  </g>
  <g>
    <rect class="cls-2" x="2.06" y="107.06" width="159" height="23.38" rx="11.5" ry="11.5"/>
    <path class="cls-1" d="M149.56,107.56c6.07,0,11,4.93,11,11v.38c0,6.07-4.93,11-11,11H13.56c-6.07,0-11-4.93-11-11v-.38c0-6.07,4.93-11,11-11h136M149.56,106.56H13.56c-6.6,0-12,5.4-12,12v.38c0,6.6,5.4,12,12,12h136c6.6,0,12-5.4,12-12v-.38c0-6.6-5.4-12-12-12h0Z"/>
  </g>
  <g>
    <rect class="cls-2" x="3" y="47.69" width="159" height="23.38" rx="11.5" ry="11.5"/>
    <path class="cls-1" d="M150.5,48.19c6.07,0,11,4.93,11,11v.38c0,6.07-4.93,11-11,11H14.5c-6.07,0-11-4.93-11-11v-.38c0-6.07,4.93-11,11-11h136M150.5,47.19H14.5c-6.6,0-12,5.4-12,12v.38c0,6.6,5.4,12,12,12h136c6.6,0,12-5.4,12-12v-.38c0-6.6-5.4-12-12-12h0Z"/>
  </g>
  <g>
    <rect class="cls-2" x=".5" y="168.62" width="159" height="23.38" rx="11.5" ry="11.5"/>
    <path class="cls-1" d="M148,169.12c6.07,0,11,4.93,11,11v.38c0,6.07-4.93,11-11,11H12c-6.07,0-11-4.93-11-11v-.38c0-6.07,4.93-11,11-11h136M148,168.12H12c-6.6,0-12,5.4-12,12v.38c0,6.6,5.4,12,12,12h136c6.6,0,12-5.4,12-12v-.38c0-6.6-5.4-12-12-12h0Z"/>
  </g>
</svg>