<?xml version="1.0" encoding="UTF-8"?>
<svg id="Layer_1" data-name="Layer 1" xmlns="http://www.w3.org/2000/svg" viewBox="0 0 430.54 735.63">
  <defs>
    <style>
      .cls-1 {
        fill: #fff;
        stroke: #000;
        stroke-linecap: round;
        stroke-miterlimit: 10;
        stroke-width: 20px;
      }
    </style>
  </defs>
  <path class="cls-1" d="M191.12,675.98l-9.77-347.55-14-31,1-71h-5.23s9.79-33.8-13.77-131C125.35-3.56,107.35,15.44,97.35,11.44c-63,50-52.06,212.18-52.06,212.18l-7.94,8.82,3,77-12,24-9,342s13,6,7,16-12,19-12,19c0,0,38,21,90,13s86.77-6.5,86.77-6.5v-18.55s-12.77,5.05-12.77-3.95v-9l12.77-9.45Z"/>
  <path class="cls-1" d="M407.62,694.82v-9l12.77-9.45-9.77-347.55-14-31,1-71h-5.23s9.79-33.8-13.77-131C354.62-3.18,336.62,15.82,326.62,11.82c-63,50-52.06,212.18-52.06,212.18l-7.94,8.82,3,77-12,24-9,342s13,6,7,16-12,19-12,19c0,0,38,21,90,13s86.77-6.5,86.77-6.5v-18.55s-12.77,5.05-12.77-3.95Z"/>
</svg>