<?xml version="1.0" encoding="UTF-8"?>
<svg id="Layer_1" data-name="Layer 1" xmlns="http://www.w3.org/2000/svg" viewBox="0 0 500 500">
  <defs>
    <style>
      .cls-1 {
        stroke: #000;
        stroke-miterlimit: 10;
        stroke-width: .25px;
      }

      .cls-2 {
        fill: #b60000;
      }
    </style>
  </defs>
  <g>
    <path class="cls-2" d="M32.11,295.52c-1.57,0-3.12-.52-4.38-1.51-1.98-1.56-2.99-4.08-2.63-6.57l13.59-94.89c.36-2.5,2.03-4.63,4.38-5.57s5.03-.55,7.01,1l75.38,59.21c1.98,1.56,2.99,4.08,2.63,6.57s-2.04,4.63-4.38,5.57l-88.97,35.68c-.85.34-1.74.51-2.63.51ZM50.11,204.56l-10.68,74.54,69.89-28.03-59.22-46.52Z"/>
    <g>
      <path class="cls-1" d="M24.07,226.62c-.2-1.08-.19-2.08.04-3,.23-.92.61-1.71,1.14-2.37.54-.66,1.22-1.18,2.05-1.56.83-.38,1.72-.57,2.68-.57h35.08c1.08,0,2.12.2,3.11.6.99.4,1.88.93,2.67,1.59.78.66,1.45,1.44,2,2.34.55.9.91,1.83,1.09,2.79l2.32,12.35c.2,1.08.19,2.08-.04,3-.23.92-.61,1.71-1.14,2.37-.54.66-1.22,1.18-2.05,1.56-.83.38-1.72.57-2.68.57h-4.08l14.35,14.81h-12.47l-14.71-14.81h-10.31l-1.89-10.07h24.16l-1.32-7.02h-29.14l5.99,31.9h-10.37l-6.47-34.48Z"/>
      <path class="cls-1" d="M86.23,235.44c.17-1.61.72-2.94,1.64-3.99.92-1.05,2.36-1.58,4.32-1.58h9.33c1.99,0,3.68.53,5.07,1.58,1.39,1.06,2.47,2.39,3.25,3.99l12.49,25.66h-8.57l-3.5-7.5h-14.15l.38-7.5h10.26l-4.05-8.75h-8.66l-2.15,23.74h-8.57l2.91-25.66Z"/>
      <path class="cls-1" d="M120.46,235.44c-.15-.8-.14-1.55.03-2.23.17-.68.45-1.27.85-1.76.4-.49.91-.88,1.52-1.16.62-.28,1.28-.42,1.99-.42h21.37c.8,0,1.57.15,2.32.45.74.3,1.4.69,1.98,1.18.58.49,1.08,1.07,1.49,1.74.41.67.68,1.36.81,2.08l1.22,6.52c.8,0,1.55.15,2.25.45s1.31.69,1.85,1.18c.54.49.98,1.07,1.33,1.74s.59,1.36.72,2.07l1.55,8.26c.15.8.14,1.55-.03,2.23-.17.68-.45,1.27-.85,1.76-.4.49-.91.88-1.52,1.16-.62.28-1.28.42-2,.42h-32.08l-4.81-25.66ZM146.33,241.82l-.84-4.46h-16.96l.84,4.46h16.96ZM153.67,253.6l-.9-4.77h-22.09l.9,4.77h22.09Z"/>
      <path class="cls-1" d="M167.62,235.44c.17-1.61.72-2.94,1.64-3.99.92-1.05,2.36-1.58,4.32-1.58h9.33c1.99,0,3.68.53,5.07,1.58,1.39,1.06,2.47,2.39,3.25,3.99l12.49,25.66h-8.57l-3.5-7.5h-14.15l.38-7.5h10.26l-4.05-8.75h-8.66l-2.15,23.74h-8.57l2.91-25.66Z"/>
      <path class="cls-1" d="M200.26,229.86h7.72l4.45,23.74h19.9l-4.45-23.74h7.72l4.81,25.66c.15.8.14,1.55-.03,2.23-.17.68-.45,1.27-.85,1.76-.4.49-.91.88-1.52,1.16-.62.28-1.28.42-2,.42h-24.14c-.8,0-1.59-.15-2.36-.45-.77-.3-1.45-.69-2.05-1.18-.6-.49-1.11-1.07-1.53-1.74-.42-.67-.7-1.36-.84-2.08l-4.84-25.79Z"/>
      <path class="cls-1" d="M239.51,229.86h7.72l2.29,12.23h6.96l7.17-12.23h8.92l-8.8,15.15,16.85,16.09h-9.86l-12.47-11.51h-7.36l2.16,11.51h-7.72l-5.86-31.23Z"/>
      <path class="cls-1" d="M277.33,235.44c-.15-.8-.14-1.55.03-2.23.17-.68.45-1.27.85-1.76.4-.49.91-.88,1.52-1.16.62-.28,1.28-.42,2-.42h28.11l1.41,7.5h-25.84l.75,4.02h22.31l1.41,7.5h-22.31l.89,4.73h25.84l1.41,7.5h-27.8c-.8,0-1.59-.15-2.36-.45-.77-.3-1.45-.69-2.05-1.18-.6-.49-1.11-1.07-1.53-1.74-.42-.67-.7-1.36-.84-2.08l-3.79-20.21Z"/>
    </g>
    <g>
      <path class="cls-1" d="M88.27,296.81h40.74l-1.14-6.45h-33.13c-1.09,0-2.15-.2-3.15-.61-1.01-.41-1.9-.94-2.69-1.61-.79-.67-1.46-1.46-2-2.37-.55-.91-.91-1.86-1.08-2.83l-1.92-10.9c-.19-1.1-.17-2.11.07-3.04.24-.93.64-1.74,1.19-2.4.55-.67,1.25-1.2,2.1-1.58.85-.38,1.75-.58,2.73-.58h39.1l1.8,10.23h-35.99l.97,5.48h33.13c1.1,0,2.15.2,3.15.61,1.01.41,1.9.94,2.69,1.62.79.67,1.46,1.46,2,2.37.55.91.91,1.86,1.08,2.83l2.09,11.88c.19,1.1.17,2.11-.07,3.04-.24.93-.64,1.73-1.19,2.4-.55.67-1.25,1.2-2.1,1.58-.85.39-1.76.58-2.73.58h-43.85l-1.8-10.23Z"/>
      <path class="cls-1" d="M140.2,275.81h7.72l2.03,11.51h21.69l-2.03-11.51h7.72l5.51,31.24h-7.72l-2.16-12.23h-21.69l2.16,12.23h-7.72l-5.51-31.24Z"/>
      <path class="cls-1" d="M184.68,299.55h10.13l-2.86-16.24h-10.13l-1.32-7.5h28.07l1.32,7.5h-10.22l2.86,16.24h10.22l1.32,7.5h-28.07l-1.32-7.5Z"/>
      <path class="cls-1" d="M212.73,281.38c-.14-.8-.13-1.55.05-2.23.18-.68.47-1.27.87-1.76.4-.49.92-.88,1.54-1.16.62-.28,1.29-.42,2-.42h26.55c.8,0,1.57.15,2.31.45s1.39.69,1.97,1.18c.58.49,1.07,1.07,1.47,1.74.4.67.66,1.36.79,2.07l2.4,13.61c.14.8.12,1.55-.05,2.23-.18.69-.47,1.27-.87,1.76-.4.49-.92.88-1.54,1.16-.62.28-1.29.42-2,.42h-24.41l1.16,6.6h-7.72l-4.52-25.66ZM244.62,292.94l-1.7-9.64h-22.13l1.7,9.64h22.13Z"/>
      <path class="cls-1" d="M251.28,275.81h8.61l10.25,24.19h1.56l1.33-17.76,7.3,14.59-.26,5.09c-.07,1.61-.64,2.94-1.7,3.99-1.06,1.05-2.59,1.58-4.58,1.58h-3.08c-1.96,0-3.6-.51-4.91-1.52-1.31-1.01-2.33-2.37-3.08-4.06l-11.43-26.11ZM273.5,275.81h8.57l11.81,24.19h1.43l1.85-24.19h8.57l-2.63,26.11c-.17,1.72-.74,3.09-1.71,4.08-.97,1-2.48,1.5-4.53,1.5h-2.81c-1.93,0-3.54-.53-4.81-1.58-1.27-1.06-2.29-2.39-3.05-3.99l-12.68-26.11Z"/>
      <path class="cls-1" d="M309.13,281.38c-.14-.8-.12-1.55.05-2.23.18-.68.47-1.27.87-1.76.4-.49.92-.88,1.54-1.16.62-.28,1.29-.42,2-.42h26.46c.8,0,1.59.15,2.35.45s1.45.69,2.04,1.18c.59.49,1.1,1.07,1.51,1.74.41.67.69,1.36.81,2.07l3.56,20.21c.14.8.12,1.55-.05,2.23-.18.69-.47,1.27-.87,1.76-.4.49-.92.88-1.54,1.16-.62.28-1.29.42-2,.42h-26.46c-.8,0-1.59-.15-2.35-.45-.76-.3-1.45-.69-2.04-1.18-.59-.49-1.1-1.07-1.51-1.74-.41-.67-.69-1.36-.81-2.08l-3.56-20.21ZM342.27,299.55l-2.86-16.24h-22.22l2.86,16.24h22.22Z"/>
      <path class="cls-1" d="M350.44,281.38c-.14-.8-.12-1.55.05-2.23.18-.68.47-1.27.87-1.76.4-.49.92-.88,1.53-1.16.62-.28,1.29-.42,2-.42h26.1c.8,0,1.57.15,2.31.45s1.39.69,1.97,1.18c.58.49,1.07,1.07,1.47,1.74.4.67.66,1.36.79,2.07l1.62,9.19c.14.8.12,1.55-.05,2.23-.18.68-.47,1.27-.87,1.76-.4.49-.92.88-1.54,1.16s-1.29.42-2,.42h-3.04l10.56,11.02h-9.28l-10.82-11.02h-7.67l-1.32-7.5h17.98l-.92-5.22h-21.69l4.19,23.74h-7.72l-4.52-25.66Z"/>
      <path class="cls-1" d="M390.49,275.81h7.72l2.16,12.23h6.96l7.3-12.23h8.92l-8.97,15.15,16.67,16.09h-9.86l-12.34-11.51h-7.36l2.03,11.51h-7.72l-5.51-31.24Z"/>
      <path class="cls-1" d="M431.35,299.55h29.85l-.83-4.73h-24.27c-.8,0-1.57-.15-2.31-.44-.74-.3-1.39-.69-1.97-1.18-.58-.49-1.07-1.07-1.47-1.74-.4-.67-.66-1.36-.79-2.07l-1.41-7.99c-.14-.8-.13-1.55.05-2.23.18-.68.47-1.27.87-1.76.4-.49.92-.88,1.53-1.16.62-.28,1.29-.42,2-.42h28.65l1.32,7.5h-26.37l.71,4.02h24.28c.8,0,1.57.15,2.31.44.74.3,1.39.69,1.97,1.18.58.49,1.07,1.07,1.47,1.74.4.67.66,1.36.79,2.07l1.54,8.7c.14.8.12,1.55-.05,2.23-.18.69-.47,1.27-.87,1.76-.4.49-.92.88-1.53,1.16-.62.28-1.29.42-2,.42h-32.13l-1.32-7.5Z"/>
    </g>
  </g>
  <polygon class="cls-2" points="476.08 313.53 92.34 313.53 91.09 309.99 474.83 309.99 476.08 313.53"/>
</svg>