<?xml version="1.0" encoding="utf-8"?>
<!-- Generator: Adobe Illustrator 28.2.0, SVG Export Plug-In . SVG Version: 6.00 Build 0)  -->
<svg version="1.1" xmlns="http://www.w3.org/2000/svg" xmlns:xlink="http://www.w3.org/1999/xlink" x="0px" y="0px"
	 viewBox="0 0 2000 526.4" style="enable-background:new 0 0 2000 526.4;" xml:space="preserve">
<style type="text/css">
	.st0{fill:#272727;}
	.st1{fill:#F0F0F0;}
	.st2{clip-path:url(#SVGID_00000024692477166894719500000003760135390634301571_);}
	.st3{clip-path:url(#SVGID_00000110467908648248132600000015917772074279862955_);}
	.st4{clip-path:url(#SVGID_00000174580321142206286690000010349263206193047441_);}
</style>
<g id="Oddity_Logo_with_Text_Black">
	<g id="Oddity">
		<g>
			<circle class="st1" cx="255.48" cy="271.93" r="220.6"/>
			<path class="st1" d="M494.46,51.34l0,220.6l-0.18,220.6c0.06,0,0.12,0,0.19,0c121.02,0,220.6-99.58,220.6-220.6
				C715.06,150.92,615.48,51.34,494.46,51.34z"/>
			<path class="st1" d="M733.63,51.34l0,220.6l-0.18,220.6c0.06,0,0.12,0,0.19,0c121.02,0,220.6-99.58,220.6-220.6
				C954.23,150.92,854.65,51.34,733.63,51.34z"/>
			<rect x="972.43" y="51.34" class="st1" width="128.68" height="441.19"/>
			<polygon class="st1" points="1119.49,198.4 1248.17,198.4 1248.17,492.53 1376.85,492.53 1376.85,198.4 1505.54,198.4 
				1505.54,51.34 1119.49,51.34 			"/>
			<polygon class="st1" points="1965.11,51.34 1818.05,51.34 1744.52,198.4 1670.98,51.34 1523.92,51.34 1670.98,345.46 
				1671.28,492.53 1818.93,492.53 1818.05,345.46 			"/>
		</g>
	</g>
	<g id="Layer_1">
		<g id="Starship">
		</g>
	</g>
</g>
<g id="Oddity_Logo_with_Text_White">
</g>
<g id="Oddity_Logo">
</g>
<g id="Oddity_Text_White">
</g>
<g id="Oddity_Text_Black">
</g>
</svg>
