<?xml version="1.0" encoding="UTF-8"?>
<svg xmlns="http://www.w3.org/2000/svg" viewBox="0 0 500 500">
  <defs>
    <style>
      .cls-1 {
        fill: red;
        stroke-width: 0px;
      }

      .cls-2 {
        fill: #f9b367;
        stroke: #000;
        stroke-linejoin: round;
        stroke-width: 2px;
      }
    </style>
  </defs>
  <g id="Layer_2" data-name="Layer 2">
    <path class="cls-2" d="M96.19,462.85l38.4-121.6-1.6-17.6,7.2-41.6,12.8-.8L236.19,17.25s32.4.17,34.35.22,82.45,263.78,82.45,263.78h14.8l4.98,37.02-.18,24.18,37.2,121.2-38.8-10.4,1.6,16-4.8,17.2-38.4.8-7.2-16.8-.8-38-67.6-39.2-68,38-2,36-5.2,20.8-37.6.4-6.8-18.4v-18l-38,10.8Z"/>
  </g>
  <g id="Layer_3" data-name="Layer 3">
    <rect class="cls-1" x="224.77" y="335.94" width="14.4" height="38.4"/>
    <rect class="cls-1" x="269.17" y="336.74" width="14.4" height="38.4"/>
    <rect class="cls-1" x="229.97" y="102.74" width="14.4" height="38.4"/>
    <rect class="cls-1" x="260.37" y="102.74" width="14.4" height="38.4"/>
  </g>
</svg>